<svg xmlns="http://www.w3.org/2000/svg" width="32" height="32" data-tags="git"><path fill="#F05032" d="M31.395 14.573L17.423.603a2.066 2.066 0 00-2.918 0l-2.894 2.9 3.68 3.68a2.451 2.451 0 013.102 3.121l3.544 3.547a2.45 2.45 0 012.533 4.052 2.449 2.449 0 01-3.466 0 2.462 2.462 0 01-.539-2.662l-3.318-3.301v8.7c.234.115.456.27.65.464.951.961.951 2.51 0 3.467a2.458 2.458 0 01-3.478 0 2.446 2.446 0 010-3.464c.242-.24.516-.422.806-.542V11.78a2.436 2.436 0 01-.8-.535 2.445 2.445 0 01-.528-2.678l-3.616-3.634L.6 14.508c-.8.807-.8 2.112 0 2.919l13.973 13.969a2.06 2.06 0 002.915 0l13.907-13.907a2.06 2.06 0 000-2.916z"/></svg>