<svg xmlns="http://www.w3.org/2000/svg" width="32" height="32" data-tags="gulp"><path fill="#DA4648" d="M20.208 25.91l.848-1.446s-1.925.788-5.147.788c-3.224 0-5.12-.757-5.12-.757l.948 1.577.336 4.972c0 .537 1.752.957 3.915.957 2.164 0 3.917-.418 3.917-.957l.306-5.113zm.82-9.395c-1.025.061-1.537 1.204-2.052 2.406-.19.44-.84 2.316-1.264 2.084-.424-.23.55-1.772.825-2.689-.316.232-1.473 1.132-1.772.287-.477.418-1.505.64-1.389-.439-.255.46-.828 1.097-1.519.819-.897-.34.527-3.215.88-3.076.355.161-.07.8-.181 1.058-.248.559-.53 1.278-.34 1.418.32.258 1.205-.938 1.225-.959.166-.22.639-1.639 1.018-1.476.38.179-.948 2.055-.454 2.435.102.08.511-.04.759-.319.16-.16.104-.56.639-1.837.538-1.279 1.018-2.875 1.385-2.755s.065.937-.068 1.257c-.619 1.438-1.69 3.792-1.187 3.614.499-.18.759-.18 1.258-.759s.46-1.536.798-1.516c.32.019.28.339.2.557.32-.36 1.536-1.157 1.818-.378.338.917-1.739 2.256-1.219 2.176.5-.06 1.317-.579 1.677-1.058l.959-8.666s-.979.8-7.148.8-7.045-.779-7.045-.779l.817 7.907c.44-1.238 1.477-3.752 3.096-3.654.739.04 1.737 1.479.877 1.519-.36.02-.4-.719-.818-.819-.319-.061-.739.18-1.018.46-.538.539-1.738 2.675-1.578 3.735.2 1.357 1.876-.461 2.156-1 .198-.377.338-1.517.757-1.397.44.12-.039 1.298-.36 2.316-.36 1.158-.539 2.374-.976 2.234-.44-.138.279-1.636.237-1.896-.417.399-1.177 1.36-2.174.879l.498 4.932s1.36 1.057 5.431 1.057 5.49-1.057 5.49-1.057l.64-5.71c-.52.52-2.157 1.417-2.257.4-.078-.82 1.778-1.998 1.299-2.02zm2.1-15.623l-3.545 3.733-.648 2.535c2.508.16 4.252.515 4.252.925 0 .559-3.219 1.01-7.188 1.01s-7.187-.458-7.187-1.018c0-.558 3.219-1.018 7.188-1.018.564 0 1.125 0 1.685.021l.748-3.035L22.2.052c.09-.12.373-.02.632.2.259.199.399.459.319.579v.04zm-5.112 7.727s-.697 0-.813-.107a.187.187 0 01-.048-.12c0-.077.052-.121.12-.147l.058.1c-.028.008-.038.02-.044.031 0 .055.419.092.74.088.319-.004.708-.03.711-.085 0-.016-.03-.031-.081-.044l.06-.096c.084.026.156.077.156.161 0 .147-.188.17-.307.188-.143.02-.55.03-.55.03z"/></svg>