<svg width="167" height="62" fill="none" xmlns="http://www.w3.org/2000/svg"><g clip-path="url(#clip0)"><path d="M86.219 20.536l7.945-.514c.181 1.299.514 2.265 1.057 2.96.876 1.087 2.085 1.63 3.686 1.63 1.178 0 2.115-.271 2.749-.845a2.432 2.432 0 00.967-1.933 2.39 2.39 0 00-.906-1.872c-.605-.544-2.025-1.087-4.26-1.57-3.655-.816-6.284-1.903-7.824-3.292-1.541-1.299-2.417-3.201-2.357-5.225 0-1.389.423-2.778 1.209-3.926.906-1.298 2.144-2.325 3.625-2.899 1.6-.694 3.837-1.057 6.646-1.057 3.444 0 6.072.634 7.885 1.933 1.812 1.268 2.9 3.322 3.232 6.13l-7.854.454c-.212-1.209-.635-2.084-1.33-2.658-.694-.574-1.6-.846-2.779-.846-.967 0-1.692.212-2.175.604-.453.363-.755.906-.725 1.51 0 .453.242.876.604 1.148.393.362 1.33.694 2.81.996 3.655.786 6.253 1.57 7.854 2.386 1.601.816 2.749 1.812 3.444 2.99a7.473 7.473 0 011.057 4.017c0 1.69-.483 3.382-1.45 4.801a9.165 9.165 0 01-4.017 3.322c-1.722.755-3.898 1.148-6.496 1.148-4.591 0-7.764-.876-9.546-2.658-1.782-1.782-2.84-4.016-3.051-6.734zM1.903 29.475V2.476H15.83c2.568 0 4.562.212 5.921.665a6.258 6.258 0 013.293 2.476c.876 1.299 1.299 2.809 1.269 4.38.09 2.657-1.269 5.193-3.595 6.522a9.217 9.217 0 01-2.93 1.057c.755.212 1.51.574 2.175.997.513.423.936.906 1.329 1.42a9.412 9.412 0 011.178 1.69l4.048 7.822h-9.486l-4.47-8.305c-.575-1.057-1.058-1.751-1.511-2.084a3.587 3.587 0 00-2.055-.634h-.725v10.963H1.903v.03zm8.368-16.066h3.535c.755-.06 1.48-.182 2.205-.363a2.116 2.116 0 001.36-.845 2.685 2.685 0 00-.302-3.564c-.544-.453-1.602-.694-3.112-.694H10.27v5.466zM0 52.608l7.945-.514c.181 1.3.514 2.265 1.058 2.96.845 1.087 2.084 1.661 3.685 1.661 1.178 0 2.115-.272 2.75-.846.603-.483.966-1.177.966-1.932a2.39 2.39 0 00-.906-1.873c-.604-.543-2.024-1.087-4.29-1.57-3.656-.816-6.284-1.903-7.825-3.292-1.54-1.298-2.416-3.201-2.356-5.224 0-1.39.423-2.779 1.209-3.926.906-1.299 2.144-2.326 3.625-2.9 1.6-.694 3.836-1.056 6.646-1.056 3.444 0 6.072.634 7.885 1.932 1.812 1.299 2.87 3.322 3.202 6.13l-7.855.454c-.211-1.208-.634-2.084-1.329-2.658-.665-.574-1.601-.845-2.78-.815-.966 0-1.691.211-2.174.634a1.754 1.754 0 00-.725 1.51c0 .453.241.876.604 1.148.393.362 1.33.694 2.81.996 3.655.785 6.253 1.57 7.854 2.386 1.601.815 2.749 1.812 3.444 2.99a7.757 7.757 0 011.087 3.986 8.685 8.685 0 01-1.45 4.772 9.165 9.165 0 01-4.018 3.322c-1.722.755-3.897 1.147-6.495 1.147-4.592 0-7.764-.876-9.546-2.657C1.239 57.56.241 55.326 0 52.608z" fill="#000"/><path d="M40.18 50.494l7.31 2.205c-.393 1.842-1.209 3.593-2.326 5.133a10.121 10.121 0 01-3.928 3.111c-1.57.695-3.564 1.057-5.981 1.057-2.93 0-5.347-.423-7.19-1.268-1.873-.846-3.474-2.356-4.834-4.5-1.36-2.144-2.024-4.892-2.024-8.245 0-4.47 1.178-7.912 3.565-10.298s5.74-3.593 10.09-3.593c3.414 0 6.072.694 8.036 2.053 1.933 1.39 3.383 3.503 4.35 6.342l-7.371 1.63a6.54 6.54 0 00-.816-1.811 4.792 4.792 0 00-1.722-1.48c-.694-.362-1.48-.513-2.265-.513-1.904 0-3.354.755-4.35 2.295-.756 1.117-1.149 2.899-1.149 5.315 0 2.99.454 5.043 1.36 6.16.906 1.118 2.175 1.662 3.837 1.662 1.6 0 2.809-.453 3.625-1.33.815-.935 1.42-2.234 1.782-3.925zm17.068-15.946h8.337v9.453h9.124v-9.453h8.398v26.999H74.71V50.615h-9.124v10.932h-8.337V34.549z" fill="#000"/><path d="M81.96 48.048c0-4.41 1.238-7.852 3.685-10.298 2.447-2.447 5.89-3.685 10.271-3.685 4.501 0 7.945 1.208 10.392 3.624 2.447 2.416 3.656 5.799 3.656 10.147 0 3.171-.544 5.738-1.601 7.762a11.32 11.32 0 01-4.592 4.71C101.747 61.427 99.239 62 96.249 62c-3.052 0-5.56-.483-7.553-1.45a11.513 11.513 0 01-4.864-4.59c-1.238-2.114-1.873-4.741-1.873-7.912zm8.337.03c0 2.718.514 4.68 1.51 5.889.998 1.178 2.387 1.782 4.14 1.782 1.782 0 3.171-.574 4.168-1.752.997-1.178 1.481-3.261 1.481-6.282 0-2.536-.514-4.409-1.541-5.556-1.027-1.178-2.417-1.752-4.169-1.752-1.54-.06-3.021.604-4.048 1.782-1.027 1.178-1.54 3.14-1.54 5.889zm28.216-.03c0-4.41 1.239-7.852 3.686-10.298 2.447-2.447 5.891-3.685 10.271-3.685 4.501 0 7.975 1.208 10.392 3.624 2.417 2.416 3.656 5.799 3.656 10.147 0 3.171-.544 5.738-1.601 7.762a11.325 11.325 0 01-4.592 4.71c-2.024 1.118-4.532 1.692-7.523 1.692-3.051 0-5.558-.483-7.552-1.45a11.515 11.515 0 01-4.864-4.59c-1.238-2.114-1.873-4.741-1.873-7.912zm8.338.03c0 2.718.514 4.68 1.511 5.889.996 1.178 2.386 1.782 4.138 1.782 1.783 0 3.172-.574 4.169-1.752.997-1.178 1.481-3.261 1.481-6.282 0-2.536-.514-4.409-1.541-5.556-1.027-1.178-2.417-1.752-4.169-1.752a5.075 5.075 0 00-4.048 1.782c-1.027 1.178-1.541 3.14-1.541 5.889z" fill="#000"/><path d="M145.642 34.548h8.337v20.355H167v6.644h-21.389V34.549h.031z" fill="#000"/><path d="M136.452 32.99c8.394-6.323 10.983-17.043 5.781-23.943-5.201-6.9-16.223-7.367-24.617-1.043-8.395 6.324-10.983 17.044-5.782 23.943 5.201 6.9 16.223 7.367 24.618 1.043z" fill="#fff"/><path d="M136.749 33.115c8.394-6.324 10.983-17.044 5.781-23.944-5.201-6.9-16.223-7.366-24.617-1.043-8.395 6.324-10.983 17.044-5.782 23.944 5.202 6.9 16.223 7.367 24.618 1.043z" stroke="#000" stroke-width="2" stroke-miterlimit="10"/><path d="M118.12 18.663l3.021-2.114 3.716 5.285a10.502 10.502 0 011.481 2.749c.211.755.151 1.57-.152 2.295a4.913 4.913 0 01-1.873 2.204c-.996.695-1.842 1.087-2.567 1.208-.695.121-1.42 0-2.085-.302a5.05 5.05 0 01-1.843-1.54l2.598-2.416c.212.332.484.634.786.876.211.15.453.241.725.241.211 0 .423-.09.574-.21.302-.182.513-.544.483-.907-.09-.513-.302-1.027-.634-1.42l-4.23-5.949zm9.063 3.353l2.75-2.175c.302.363.694.634 1.117.785.604.182 1.239.06 1.752-.332.363-.241.665-.574.786-.996a1.06 1.06 0 00-.665-1.33.877.877 0 00-.272-.06c-.362-.03-.997.121-1.933.514-1.541.634-2.749.876-3.655.785-.877-.09-1.692-.544-2.176-1.299a3.267 3.267 0 01-.574-1.721c0-.695.182-1.39.574-1.963a7.606 7.606 0 012.115-2.053c1.269-.876 2.387-1.3 3.353-1.3.967 0 1.873.454 2.719 1.39l-2.719 2.144c-.543-.694-1.57-.845-2.265-.302l-.091.09a1.485 1.485 0 00-.634.786c-.091.242-.031.513.121.725.12.15.302.272.513.272.242.03.665-.091 1.269-.363 1.51-.634 2.658-.996 3.444-1.117a3.48 3.48 0 011.994.211 3.106 3.106 0 011.389 1.178c.423.604.665 1.329.695 2.084a3.8 3.8 0 01-.604 2.204 7.399 7.399 0 01-2.054 2.054c-1.662 1.148-3.021 1.63-4.109 1.45a4.435 4.435 0 01-2.84-1.661z" fill="#000"/></g><defs><clipPath id="clip0"><path fill="#fff" d="M0 0h167v62H0z"/></clipPath></defs></svg>